<svg viewBox="0 0 128 128" xmlns="http://www.w3.org/2000/svg">
  <defs>
    <linearGradient id="bg" x1="0" y1="0" x2="1" y2="1">
      <stop offset="0%" stop-color="#1b2838"/>
      <stop offset="100%" stop-color="#0f1923"/>
    </linearGradient>
    <linearGradient id="arc1" x1="0" y1="0" x2="1" y2="1">
      <stop offset="0%" stop-color="#22d3ee"/>
      <stop offset="100%" stop-color="#4f8cff"/>
    </linearGradient>
    <linearGradient id="arc2" x1="1" y1="0" x2="0" y2="1">
      <stop offset="0%" stop-color="#f0b429"/>
      <stop offset="100%" stop-color="#f97316"/>
    </linearGradient>
  </defs>
  <!-- Background -->
  <rect x="8" y="8" width="112" height="112" rx="26" fill="url(#bg)" stroke="#253545" stroke-width="1"/>
  <!-- Top-right sync arc -->
  <path d="M64 28 A36 36 0 0 1 96 54" fill="none" stroke="url(#arc1)" stroke-width="3.5" stroke-linecap="round"/>
  <polygon points="97,48 100,56 92,56" fill="#22d3ee"/>
  <!-- Bottom-left sync arc -->
  <path d="M64 100 A36 36 0 0 1 32 74" fill="none" stroke="url(#arc2)" stroke-width="3.5" stroke-linecap="round"/>
  <polygon points="31,80 28,72 36,72" fill="#f0b429"/>
  <!-- DNA strand 1 -->
  <path d="M56 46 C56 52 72 54 72 60 C72 66 56 68 56 74 C56 80 72 82 72 88"
        fill="none" stroke="#22d3ee" stroke-width="2.5" stroke-linecap="round" opacity="0.9"/>
  <!-- DNA strand 2 -->
  <path d="M72 46 C72 52 56 54 56 60 C56 66 72 68 72 74 C72 80 56 82 56 88"
        fill="none" stroke="#f0b429" stroke-width="2.5" stroke-linecap="round" opacity="0.9"/>
  <!-- Cross-point dots -->
  <circle cx="64" cy="53" r="2" fill="#fff" opacity="0.8"/>
  <circle cx="64" cy="67" r="2" fill="#fff" opacity="0.8"/>
  <circle cx="64" cy="81" r="2" fill="#fff" opacity="0.8"/>
</svg>
